<?xml version="1.0" encoding="utf-8"?>
<!-- Generator: Adobe Illustrator 21.0.0, SVG Export Plug-In . SVG Version: 6.00 Build 0)  -->
<svg version="1.1" id="Layer_1" xmlns="http://www.w3.org/2000/svg" xmlns:xlink="http://www.w3.org/1999/xlink" x="0px" y="0px"
	 viewBox="0 0 164 40" style="enable-background:new 0 0 164 40;" xml:space="preserve">
<style type="text/css">
	.st0{fill:url(#SVGID_1_);}
	.st1{fill:url(#SVGID_2_);}
	.st2{fill:url(#SVGID_3_);}
	.st3{fill:url(#SVGID_4_);}
	.st4{fill:url(#SVGID_5_);}
	.st5{fill:url(#SVGID_6_);}
	.st6{fill:url(#SVGID_7_);}
	.st7{fill:url(#SVGID_8_);}
	.st8{fill:url(#SVGID_9_);}
	.st9{fill:#6D6E70;}
</style>
<g>
	<g>
		<linearGradient id="SVGID_1_" gradientUnits="userSpaceOnUse" x1="10.3558" y1="14.7365" x2="167.571" y2="-9.2102">
			<stop  offset="0" style="stop-color:#D3A475"/>
			<stop  offset="1.641946e-02" style="stop-color:#CF9F73"/>
			<stop  offset="0.1106" style="stop-color:#BB886C"/>
			<stop  offset="0.2112" style="stop-color:#AD7767"/>
			<stop  offset="0.322" style="stop-color:#A56D64"/>
			<stop  offset="0.4624" style="stop-color:#A26A63"/>
			<stop  offset="0.5699" style="stop-color:#EFCB9F"/>
			<stop  offset="0.7151" style="stop-color:#B08459"/>
			<stop  offset="1" style="stop-color:#A06464"/>
		</linearGradient>
		<path class="st0" d="M19,24c-4.9,0-8.9-3.4-8.9-10.9c0-7,4.4-10.4,9.2-10.4c3.6,0,6.4,1.9,6.4,4.2c-0.1,1.9-2.1,1.6-1.8-0.1
			c0.4-2-1.2-3.9-4.5-3.9h-0.1c-4.1,0-7.4,2.9-7.4,10.2c0,7.9,3.1,10.6,7.1,10.7h0c3.4,0,5.4-2.3,5-4.3c-0.3-1.6,1.9-1.8,1.8-0.1
			C25.9,21.7,22.7,24,19,24L19,24z"/>
		<linearGradient id="SVGID_2_" gradientUnits="userSpaceOnUse" x1="10.6078" y1="16.3906" x2="167.8229" y2="-7.5561">
			<stop  offset="0" style="stop-color:#D3A475"/>
			<stop  offset="1.641946e-02" style="stop-color:#CF9F73"/>
			<stop  offset="0.1106" style="stop-color:#BB886C"/>
			<stop  offset="0.2112" style="stop-color:#AD7767"/>
			<stop  offset="0.322" style="stop-color:#A56D64"/>
			<stop  offset="0.4624" style="stop-color:#A26A63"/>
			<stop  offset="0.5699" style="stop-color:#EFCB9F"/>
			<stop  offset="0.7151" style="stop-color:#B08459"/>
			<stop  offset="1" style="stop-color:#A06464"/>
		</linearGradient>
		<path class="st1" d="M28,23.6c-0.2,0-0.2-0.2,0-0.2h1.4c0.1,0,0.2-0.1,0.2-0.2V3.6c0-0.1-0.1-0.2-0.2-0.2h-1.3
			c-0.1,0-0.1-0.2,0-0.2h4.6c0.1,0,0.1,0.2,0,0.2h-1.3c-0.1,0-0.2,0.1-0.2,0.2v19.5c0,0.1,0.1,0.2,0.2,0.2h1.4c0.1,0,0.1,0.2,0,0.2
			H28z"/>
		<linearGradient id="SVGID_3_" gradientUnits="userSpaceOnUse" x1="10.8705" y1="18.1155" x2="168.0857" y2="-5.8312">
			<stop  offset="0" style="stop-color:#D3A475"/>
			<stop  offset="1.641946e-02" style="stop-color:#CF9F73"/>
			<stop  offset="0.1106" style="stop-color:#BB886C"/>
			<stop  offset="0.2112" style="stop-color:#AD7767"/>
			<stop  offset="0.322" style="stop-color:#A56D64"/>
			<stop  offset="0.4624" style="stop-color:#A26A63"/>
			<stop  offset="0.5699" style="stop-color:#EFCB9F"/>
			<stop  offset="0.7151" style="stop-color:#B08459"/>
			<stop  offset="1" style="stop-color:#A06464"/>
		</linearGradient>
		<path class="st2" d="M38.5,11.9c-0.1,0-0.2,0.1-0.2,0.2v11c0,0.1,0.1,0.2,0.2,0.2h7.8c1.1,0,2.4-1.4,2.4-3v-0.5H49v3.7H35.1
			c-0.1,0-0.1-0.2,0-0.2h1.4c0.1,0,0.2-0.1,0.2-0.2V3.6c0-0.1-0.1-0.2-0.2-0.2h-1.4c-0.1,0-0.1-0.2,0-0.2h12.7v3.4h-0.2V6.1
			c0-1.4-0.9-2.7-2.9-2.7h-6.2c-0.1,0-0.2,0.1-0.2,0.2v7.9c0,0.1,0.1,0.2,0.2,0.2H43c1.2,0,2.3-0.7,2.3-1.9V9.7h0.2v4.2h-0.2v-0.2
			c0-1.2-1.1-1.8-2.3-1.8H38.5z"/>
		<linearGradient id="SVGID_4_" gradientUnits="userSpaceOnUse" x1="11.2297" y1="20.4733" x2="168.4448" y2="-3.4734">
			<stop  offset="0" style="stop-color:#D3A475"/>
			<stop  offset="1.641946e-02" style="stop-color:#CF9F73"/>
			<stop  offset="0.1106" style="stop-color:#BB886C"/>
			<stop  offset="0.2112" style="stop-color:#AD7767"/>
			<stop  offset="0.322" style="stop-color:#A56D64"/>
			<stop  offset="0.4624" style="stop-color:#A26A63"/>
			<stop  offset="0.5699" style="stop-color:#EFCB9F"/>
			<stop  offset="0.7151" style="stop-color:#B08459"/>
			<stop  offset="1" style="stop-color:#A06464"/>
		</linearGradient>
		<path class="st3" d="M54.7,3.4c-0.2,0-0.3,0.1-0.3,0.3V23c0,0.2,0.1,0.3,0.3,0.3h6c2.1-0.1,3.6-1.6,3.6-4.1v-1.4h0.2v5.8H51.2
			c-0.1,0-0.1-0.2,0-0.2h1.3c0.2,0,0.3-0.1,0.3-0.3V3.7c0-0.2-0.1-0.3-0.3-0.3h-1.3c-0.1,0-0.1-0.2,0-0.2h4.9c0.2,0,0.2,0.2,0,0.2
			H54.7z"/>
		<linearGradient id="SVGID_5_" gradientUnits="userSpaceOnUse" x1="11.7489" y1="23.8823" x2="168.9641" y2="-6.439265e-02">
			<stop  offset="0" style="stop-color:#D3A475"/>
			<stop  offset="1.641946e-02" style="stop-color:#CF9F73"/>
			<stop  offset="0.1106" style="stop-color:#BB886C"/>
			<stop  offset="0.2112" style="stop-color:#AD7767"/>
			<stop  offset="0.322" style="stop-color:#A56D64"/>
			<stop  offset="0.4624" style="stop-color:#A26A63"/>
			<stop  offset="0.5699" style="stop-color:#EFCB9F"/>
			<stop  offset="0.7151" style="stop-color:#B08459"/>
			<stop  offset="1" style="stop-color:#A06464"/>
		</linearGradient>
		<path class="st4" d="M77.6,23.7c-2.1,0-4.4-1.2-4.4-5.8v-0.6c0-4.8,3.7-7.4,7.7-7.4l2.4,0V3.2c0-0.4-0.2-0.7-0.6-0.7h-1.5
			c-0.1,0-0.1-0.2,0-0.2h4.1c0.1,0,0.2,0.2,0,0.2h-0.4v19.7c0,0.5,0.3,1.1,0.9,1.1c0.5,0,0.9-0.4,0.9-0.9c0-0.1,0.2-0.1,0.2,0
			c0,0.9-0.7,1.3-1.6,1.3c-1.2,0-1.8-0.9-1.8-2.2v-4.3C82.3,20.4,80.4,23.7,77.6,23.7z M74.7,17.8c0,4.9,1.5,5.7,2.7,5.7h0.1
			c3,0,4.9-3.8,5.6-7.1V10H81c-3.8,0-6.2,2.8-6.2,7.2V17.8z"/>
		<linearGradient id="SVGID_6_" gradientUnits="userSpaceOnUse" x1="12.5583" y1="29.1961" x2="169.7735" y2="5.2494">
			<stop  offset="0" style="stop-color:#D3A475"/>
			<stop  offset="1.641946e-02" style="stop-color:#CF9F73"/>
			<stop  offset="0.1106" style="stop-color:#BB886C"/>
			<stop  offset="0.2112" style="stop-color:#AD7767"/>
			<stop  offset="0.322" style="stop-color:#A56D64"/>
			<stop  offset="0.4624" style="stop-color:#A26A63"/>
			<stop  offset="0.5699" style="stop-color:#EFCB9F"/>
			<stop  offset="0.7151" style="stop-color:#B08459"/>
			<stop  offset="1" style="stop-color:#A06464"/>
		</linearGradient>
		<path class="st5" d="M97.8,19.5c-0.4-1.3,1.4-1.5,1.4-0.1c0,2.1-2.6,4.3-5.4,4.3c-4.3,0-6.1-2.9-6.1-6.8c0-3.8,2.7-7.1,6.8-7.1
			c2.7,0,4.6,1.3,4.6,3.5c0,1.8-1.7,2.9-3.4,3.4c-2.9,0.8-6.5,1.5-6.2,3.8c0.8,1.9,1.8,3,4.3,3C96.7,23.5,98.4,21.2,97.8,19.5z
			 M94.3,10c-3.5,0-4.8,2.8-5,6.3c0,1.1,0,2.4,0.1,3.5c0.4-2,3.6-2.4,6.1-3.2c1.6-0.5,2.2-1.7,2.2-3.4C97.7,11.4,96.8,10,94.3,10z"
			/>
		<linearGradient id="SVGID_7_" gradientUnits="userSpaceOnUse" x1="12.6215" y1="29.6109" x2="169.8366" y2="5.6643">
			<stop  offset="0" style="stop-color:#D3A475"/>
			<stop  offset="1.641946e-02" style="stop-color:#CF9F73"/>
			<stop  offset="0.1106" style="stop-color:#BB886C"/>
			<stop  offset="0.2112" style="stop-color:#AD7767"/>
			<stop  offset="0.322" style="stop-color:#A56D64"/>
			<stop  offset="0.4624" style="stop-color:#A26A63"/>
			<stop  offset="0.5699" style="stop-color:#EFCB9F"/>
			<stop  offset="0.7151" style="stop-color:#B08459"/>
			<stop  offset="1" style="stop-color:#A06464"/>
		</linearGradient>
		<path class="st6" d="M110.1,13.2c0,7.4,2.9,10.7,6.7,10.7c2.9,0,5.6-1.6,5.6-6.2v-2.8h-1.6c-0.2,0-0.2-0.2,0-0.2h4.7
			c0.2,0,0.2,0.2,0,0.2h-1.3v8.8c0,0.2-0.2,0.2-0.2,0v-2.3c0-0.6-0.4-0.7-0.7-0.2c-1.3,1.9-3.3,2.9-6.4,2.9c-4.7,0-8.5-3.6-8.5-10.8
			c0-7.2,4.1-10.4,8.6-10.4h0c4.8,0,6.9,3,6.9,5.1c0,1.5-2.1,1.5-1.7-0.1c0.5-2.4-0.9-4.9-5.2-4.9C113.1,2.9,110.1,5.8,110.1,13.2z"
			/>
		<linearGradient id="SVGID_8_" gradientUnits="userSpaceOnUse" x1="12.8752" y1="31.2768" x2="170.0904" y2="7.3302">
			<stop  offset="0" style="stop-color:#D3A475"/>
			<stop  offset="1.641946e-02" style="stop-color:#CF9F73"/>
			<stop  offset="0.1106" style="stop-color:#BB886C"/>
			<stop  offset="0.2112" style="stop-color:#AD7767"/>
			<stop  offset="0.322" style="stop-color:#A56D64"/>
			<stop  offset="0.4624" style="stop-color:#A26A63"/>
			<stop  offset="0.5699" style="stop-color:#EFCB9F"/>
			<stop  offset="0.7151" style="stop-color:#B08459"/>
			<stop  offset="1" style="stop-color:#A06464"/>
		</linearGradient>
		<path class="st7" d="M128,23.6c-0.2,0-0.2-0.2,0-0.2h1.4c0.1,0,0.2-0.1,0.2-0.2V3.6c0-0.1-0.1-0.2-0.2-0.2h-1.3
			c-0.1,0-0.1-0.2,0-0.2h4.6c0.1,0,0.1,0.2,0,0.2h-1.3c-0.1,0-0.2,0.1-0.2,0.2v19.5c0,0.1,0.1,0.2,0.2,0.2h1.4c0.1,0,0.1,0.2,0,0.2
			H128z"/>
		<linearGradient id="SVGID_9_" gradientUnits="userSpaceOnUse" x1="13.2648" y1="33.8342" x2="170.4799" y2="9.8875">
			<stop  offset="0" style="stop-color:#D3A475"/>
			<stop  offset="1.641946e-02" style="stop-color:#CF9F73"/>
			<stop  offset="0.1106" style="stop-color:#BB886C"/>
			<stop  offset="0.2112" style="stop-color:#AD7767"/>
			<stop  offset="0.322" style="stop-color:#A56D64"/>
			<stop  offset="0.4624" style="stop-color:#A26A63"/>
			<stop  offset="0.5699" style="stop-color:#EFCB9F"/>
			<stop  offset="0.7151" style="stop-color:#B08459"/>
			<stop  offset="1" style="stop-color:#A06464"/>
		</linearGradient>
		<path class="st8" d="M141.5,3.2h3.1l7.6,20.2h1.6c0.2,0,0.2,0.2,0,0.2h-4.9c-0.1,0-0.1-0.2,0-0.2h1.6l-3.1-8.2h-8.6l-3,8.2h1.6
			c0.2,0,0.2,0.2,0,0.2H134c-0.2,0-0.2-0.2,0-0.2h1.6l3.1-8.5l4.2-11.5h-1.3C141.4,3.4,141.4,3.2,141.5,3.2z M138.9,14.9h8.4
			L143,3.5L138.9,14.9z"/>
	</g>
	<g>
		<path class="st9" d="M47.5,37.7v-5.9h1.7c0.3,0,0.6,0,0.9,0.1c0.2,0.1,0.5,0.2,0.6,0.3c0.2,0.1,0.3,0.3,0.4,0.5
			c0.1,0.2,0.1,0.4,0.1,0.6c0,0.2,0,0.3-0.1,0.4c-0.1,0.1-0.1,0.3-0.2,0.4c-0.1,0.1-0.2,0.2-0.4,0.3c-0.1,0.1-0.3,0.2-0.5,0.2
			c0.5,0.1,0.8,0.2,1.1,0.5c0.2,0.2,0.4,0.6,0.4,0.9c0,0.2,0,0.5-0.1,0.7c-0.1,0.2-0.2,0.4-0.4,0.5c-0.2,0.1-0.4,0.2-0.6,0.3
			c-0.2,0.1-0.5,0.1-0.8,0.1H47.5z M47.9,34.5h1.3c0.3,0,0.5,0,0.7-0.1c0.2-0.1,0.4-0.2,0.5-0.3s0.2-0.2,0.3-0.4
			c0.1-0.1,0.1-0.3,0.1-0.4c0-0.4-0.1-0.7-0.4-0.9c-0.3-0.2-0.6-0.3-1.2-0.3h-1.3V34.5z M47.9,34.9v2.5h1.5c0.5,0,0.9-0.1,1.2-0.3
			c0.3-0.2,0.4-0.5,0.4-0.9c0-0.2,0-0.4-0.1-0.5c-0.1-0.1-0.2-0.3-0.3-0.4c-0.1-0.1-0.3-0.2-0.5-0.2c-0.2-0.1-0.4-0.1-0.7-0.1H47.9z
			"/>
		<path class="st9" d="M61.5,35v2.7h-0.4v-5.9h1.5c0.7,0,1.2,0.1,1.5,0.4c0.3,0.3,0.5,0.6,0.5,1.2c0,0.2,0,0.4-0.1,0.6
			c-0.1,0.2-0.2,0.3-0.3,0.5s-0.3,0.3-0.5,0.3c-0.2,0.1-0.4,0.1-0.7,0.2c0.1,0,0.1,0.1,0.2,0.2l2,2.5h-0.4c0,0-0.1,0-0.1,0
			s-0.1,0-0.1-0.1l-1.9-2.4c0,0,0-0.1-0.1-0.1c0,0-0.1,0-0.1-0.1c0,0-0.1,0-0.1,0c0,0-0.1,0-0.1,0H61.5z M61.5,34.7h1
			c0.3,0,0.5,0,0.7-0.1s0.4-0.2,0.5-0.3c0.1-0.1,0.3-0.3,0.3-0.4c0.1-0.2,0.1-0.3,0.1-0.6c0-0.4-0.1-0.7-0.4-0.9s-0.7-0.3-1.2-0.3
			h-1.1V34.7z"/>
		<path class="st9" d="M74.9,37.7h-0.4v-5.9h0.4V37.7z"/>
		<path class="st9" d="M89.9,34.7c0,0.5-0.1,0.9-0.2,1.2c-0.1,0.4-0.3,0.7-0.6,0.9c-0.2,0.3-0.5,0.5-0.9,0.6
			c-0.3,0.1-0.7,0.2-1.1,0.2H85v-5.9h2.2c0.4,0,0.8,0.1,1.1,0.2c0.3,0.1,0.6,0.3,0.9,0.6c0.2,0.3,0.4,0.6,0.6,0.9
			C89.9,33.9,89.9,34.3,89.9,34.7z M89.5,34.7c0-0.4-0.1-0.8-0.2-1.1c-0.1-0.3-0.3-0.6-0.5-0.8c-0.2-0.2-0.5-0.4-0.7-0.5
			c-0.3-0.1-0.6-0.2-1-0.2h-1.7v5.2h1.7c0.4,0,0.7-0.1,1-0.2c0.3-0.1,0.5-0.3,0.7-0.5c0.2-0.2,0.4-0.5,0.5-0.8S89.5,35.1,89.5,34.7z
			"/>
		<path class="st9" d="M104,37.7h-0.3c0,0-0.1,0-0.1,0s0,0-0.1-0.1l-0.7-1.7h-2.9l-0.7,1.7c0,0,0,0.1-0.1,0.1c0,0-0.1,0-0.1,0h-0.3
			l2.4-5.9h0.4L104,37.7z M100,35.5h2.6l-1.2-3c0-0.1-0.1-0.2-0.1-0.3c0,0.1,0,0.1-0.1,0.2c0,0.1,0,0.1-0.1,0.2L100,35.5z"/>
		<path class="st9" d="M113.7,37.3h2.8v0.4h-3.2v-5.9h0.4V37.3z"/>
	</g>
</g>
</svg>
